<?xml version="1.0"?>
<svg xmlns="http://www.w3.org/2000/svg" viewBox="0 0 512 512" width="512" height="512"><g id="outline"><path d="M280,176h24a8,8,0,0,0,0-16H280a8,8,0,0,0,0,16Z"/><circle cx="290" cy="194" r="10"/><path d="M232,160H208a8,8,0,0,0,0,16h24a8,8,0,0,0,0-16Z"/><circle cx="222" cy="194" r="10"/><path d="M287.761,254.06a8,8,0,0,0-9.7-5.821l-32,8a8,8,0,1,0,3.88,15.522l32-8A8,8,0,0,0,287.761,254.06Z"/><path d="M487.919,486.868l-3.786-26.5a68.369,68.369,0,0,0-34.293-49.826L332.865,345.551l-23.208-23.208a8,8,0,0,0-8.457-1.831l-2.5-4.99A78.713,78.713,0,0,0,329.254,278.4,205.5,205.5,0,0,0,341.789,232h5.267a28.785,28.785,0,0,0,25.888-16A29.1,29.1,0,0,0,376,203.056V188.944a28.834,28.834,0,0,0-8.059-20.008A8.04,8.04,0,0,0,368,168V131.081a106.624,106.624,0,0,0-7.659-39.769,43.216,43.216,0,0,0-36.893-27.178L304.04,44.727A43.162,43.162,0,0,0,273.316,32H223.008a244.134,244.134,0,0,1-59.15-7.281l-33.918-8.48A8,8,0,0,0,120,24V54.059a89.31,89.31,0,0,0,24,61.168V168a8.04,8.04,0,0,0,.059.936A28.834,28.834,0,0,0,136,188.944v14.112A29.1,29.1,0,0,0,139.056,216a28.785,28.785,0,0,0,25.888,16h5.267a205.5,205.5,0,0,0,12.535,46.4A78.713,78.713,0,0,0,213.3,315.522l-2.495,4.989a7.994,7.994,0,0,0-7.6,1.089l-31.643,23.732L60.835,410.462a67.658,67.658,0,0,0-32.838,49l-3.916,27.411A8,8,0,0,0,32,496H480a8,8,0,0,0,7.919-9.132ZM318.266,353.58l-17.844,35.687-30.917-15.458,34.5-34.5ZM266.234,408H245.766l-5.125-15.376L256,384.944l15.359,7.68ZM360,203.056a13.017,13.017,0,0,1-1.366,5.788A12.875,12.875,0,0,1,347.056,216h-3.543q.48-7.05.487-14.163V176h3.056A12.959,12.959,0,0,1,360,188.944Zm-224-149V34.246l23.978,5.994A260.04,260.04,0,0,0,223.008,48h50.308a27.266,27.266,0,0,1,19.41,8.04l21.617,21.617A8,8,0,0,0,320,80a27.319,27.319,0,0,1,25.486,17.254A90.7,90.7,0,0,1,352,131.081v29.35a28.987,28.987,0,0,0-4.944-.431H344V144a8,8,0,0,0-1.14-4.116l-24-40A8,8,0,0,0,312,96H297.888l-16-8A17.792,17.792,0,0,1,272,72a8,8,0,0,0-16,0,33.683,33.683,0,0,0,9.958,24h-8.07l-16-8A17.792,17.792,0,0,1,232,72a8,8,0,0,0-16,0,33.683,33.683,0,0,0,9.958,24h-8.07l-16-8A17.792,17.792,0,0,1,192,72a8,8,0,0,0-16,0,33.674,33.674,0,0,0,16.442,29.047l-23.3,38.837A8,8,0,0,0,168,144v16h-3.056a28.987,28.987,0,0,0-4.944.431V112a8,8,0,0,0-2.343-5.657A73.453,73.453,0,0,1,136,54.059ZM164.944,216a12.875,12.875,0,0,1-11.578-7.156A13.017,13.017,0,0,1,152,203.056V188.944A12.959,12.959,0,0,1,164.944,176H168v25.837q0,7.113.487,14.163ZM197.6,272.461A189.325,189.325,0,0,1,184,201.837V146.216L204.529,112H307.471L328,146.216v55.621a189.342,189.342,0,0,1-13.6,70.626,62.9,62.9,0,0,1-116.8,0ZM256,328a79.246,79.246,0,0,0,28.433-5.246l4.412,8.824c.029.058.067.108.1.165L256,364.686l-32.943-32.943c.031-.057.069-.107.1-.165l4.412-8.824A79.246,79.246,0,0,0,256,328Zm-48.75,10.563L242.5,373.809l-31.756,15.878-23.885-35.828ZM43.835,461.721a51.74,51.74,0,0,1,25.113-37.468l104.59-61.524,27.806,41.709a8,8,0,0,0,10.234,2.717l14.607-7.3,5.67,17.011L224.84,480H88V456a8,8,0,0,0-16,0v24H41.224ZM240.938,480l6.222-56h17.68l6.222,56ZM440,480V456a8,8,0,0,0-16,0v24H287.16l-7.015-63.137,5.67-17.011,14.607,7.3a7.993,7.993,0,0,0,10.733-3.577l20.264-40.527L442.07,424.523a52.287,52.287,0,0,1,26.224,38.1L470.776,480Z"/><path d="M248,240h16a8,8,0,0,0,0-16h-8V208a8,8,0,0,0-16,0v24A8,8,0,0,0,248,240Z"/><path d="M400,448H336a8,8,0,0,0,0,16h64a8,8,0,0,0,0-16Z"/></g></svg>
