<svg id="Layer_1" enable-background="new 0 0 511.999 511.999" height="512" viewBox="0 0 511.999 511.999" width="512" xmlns="http://www.w3.org/2000/svg"><g><path d="m471.381 481.999h-14.403c-4.014-14.519-21.818-73.348-26.732-92.054-8.788-33.462-37.939-55.945-72.538-55.945h-203.429c-34.597 0-63.749 22.482-72.539 55.944-4.86 18.501-22.682 77.333-26.735 92.055h-14.387c-8.284 0-15 6.716-15 15s6.716 15 15 15h430.764c8.284 0 15-6.716 15-15s-6.716-15-15.001-15zm-317.102-117.999h203.429c19.504 0 36.121 11.909 42.432 30h-288.294c6.312-18.091 22.929-30 42.433-30zm-68.128 117.999c3.231-11.368 14.697-49.21 17.257-57.999h305.163c2.611 8.976 14.067 46.823 17.253 57.999z"/><path d="m256 233.716c52.383 0 95-42.617 95-95 0-22.088-14.065-51.554-41.804-87.578-11.889-15.44-22.831-27.49-28.295-33.299-14.694-15.618-18.513-17.839-24.901-17.839s-10.207 2.221-24.901 17.839c-5.464 5.809-16.406 17.858-28.295 33.299-27.74 36.025-41.804 65.49-41.804 87.578 0 52.384 42.616 95 95 95zm-32.518-160.206c12.333-16.459 24.669-30.22 32.518-38.32 7.849 8.1 20.185 21.86 32.518 38.32 20.642 27.549 32.482 51.316 32.482 65.206 0 35.841-29.159 65-65 65s-65-29.159-65-65c0-13.89 11.839-37.657 32.482-65.206z"/><path d="m412.474 310.98c5.561 3.21 10.27 7.49 13.997 12.722 2.926 4.108 7.543 6.298 12.23 6.298 3.011 0 6.051-.904 8.69-2.784 6.747-4.806 8.321-14.172 3.515-20.92-6.238-8.758-14.122-15.923-23.431-21.298-9.259-5.346-19.78-8.689-30.426-9.668-8.25-.758-15.552 5.314-16.31 13.564s5.314 15.552 13.564 16.31c6.356.586 12.639 2.583 18.171 5.776z"/><path d="m510.374 289.072c-11.822-23.503-30.115-42.879-52.901-56.035-22.734-13.125-48.605-19.283-74.817-17.807-8.271.466-14.599 7.548-14.133 15.819s7.542 14.588 15.819 14.133c20.369-1.147 40.468 3.637 58.13 13.835 17.704 10.221 31.916 25.275 41.1 43.535 2.635 5.239 7.922 8.264 13.412 8.263 2.266 0 4.567-.516 6.729-1.603 7.402-3.722 10.383-12.739 6.661-20.14z"/><path d="m114.952 275.332c-10.646.979-21.167 4.322-30.425 9.667-9.31 5.375-17.194 12.541-23.432 21.298-4.806 6.748-3.232 16.114 3.515 20.92 2.64 1.88 5.679 2.784 8.69 2.784 4.687 0 9.304-2.19 12.23-6.298 3.727-5.232 8.436-9.512 13.998-12.723 5.53-3.193 11.813-5.189 18.171-5.774 8.25-.758 14.322-8.061 13.564-16.31-.76-8.25-8.068-14.324-16.311-13.564z"/><path d="m28.426 302.553c9.185-18.259 23.396-33.313 41.1-43.535 17.664-10.198 37.766-14.984 58.13-13.835 8.269.466 15.354-5.862 15.819-14.133s-5.861-15.354-14.133-15.819c-26.212-1.478-52.083 4.682-74.817 17.807-22.786 13.155-41.079 32.532-52.901 56.035-3.722 7.401-.741 16.418 6.66 20.141 2.162 1.087 4.462 1.603 6.729 1.603 5.49-.001 10.778-3.026 13.413-8.264z"/></g></svg>