<?xml version="1.0" encoding="iso-8859-1"?>
<!-- Generator: Adobe Illustrator 19.0.0, SVG Export Plug-In . SVG Version: 6.00 Build 0)  -->
<svg version="1.1" id="Capa_1" xmlns="http://www.w3.org/2000/svg" xmlns:xlink="http://www.w3.org/1999/xlink" x="0px" y="0px"
	 viewBox="0 0 480 480" style="enable-background:new 0 0 480 480;" xml:space="preserve">
<g>
	<g>
		<path d="M472,183.932c4.416,0,8-3.576,8-8v-48c0-4.424-3.584-8-8-8h-8v-48c0-4.424-3.584-8-8-8H24c-4.416,0-8,3.576-8,8v56H8
			c-4.416,0-8,3.576-8,8v136c0,4.424,3.584,8,8,8h8v112c0,4.424,3.584,8,8,8h112v8c0,4.424,3.584,8,8,8h48c4.416,0,8-3.576,8-8v-8
			h16c0,4.424,3.584,8,8,8h32c4.416,0,8-3.576,8-8h112h80c4.416,0,8-3.576,8-8v-80v-48h8c4.416,0,8-3.576,8-8v-48
			c0-4.424-3.584-8-8-8h-8v-16H472z M16,263.932v-120h24v120H16z M184,399.932h-32v-64h32V399.932z M248,391.932h-16v-16h16V391.932
			z M448,383.932h-64v-64h64V383.932z M448,303.932h-72c-4.416,0-8,3.576-8,8v72H264v-16c0-4.424-3.584-8-8-8h-32
			c-4.416,0-8,3.576-8,8v16h-16v-56c0-4.424-3.584-8-8-8h-48c-4.416,0-8,3.576-8,8v56H32v-104h16c4.416,0,8-3.576,8-8v-136
			c0-4.424-3.584-8-8-8H32v-48h416v40h-56c-4.416,0-8,3.576-8,8v48c0,4.424,3.584,8,8,8h56v16h-56c-4.416,0-8,3.576-8,8v48
			c0,4.424,3.584,8,8,8h56V303.932z M464,247.932h-64v-32h64V247.932z M400,167.932v-32h64v32H400z"/>
	</g>
</g>
<g>
	<g>
		<path d="M96,95.932c-13.232,0-24,10.768-24,24s10.768,24,24,24s24-10.768,24-24S109.232,95.932,96,95.932z M96,127.932
			c-4.408,0-8-3.584-8-8s3.592-8,8-8s8,3.584,8,8S100.408,127.932,96,127.932z"/>
	</g>
</g>
<g>
	<g>
		<path d="M328,95.932c-13.232,0-24,10.768-24,24s10.768,24,24,24s24-10.768,24-24S341.232,95.932,328,95.932z M328,127.932
			c-4.408,0-8-3.584-8-8s3.592-8,8-8c4.408,0,8,3.584,8,8S332.408,127.932,328,127.932z"/>
	</g>
</g>
<g>
	<g>
		<path d="M96,311.932c-13.232,0-24,10.768-24,24s10.768,24,24,24s24-10.768,24-24S109.232,311.932,96,311.932z M96,343.932
			c-4.408,0-8-3.584-8-8c0-4.416,3.592-8,8-8s8,3.584,8,8C104,340.348,100.408,343.932,96,343.932z"/>
	</g>
</g>
<g>
	<g>
		<path d="M328,311.932c-13.232,0-24,10.768-24,24s10.768,24,24,24s24-10.768,24-24S341.232,311.932,328,311.932z M328,343.932
			c-4.408,0-8-3.584-8-8c0-4.416,3.592-8,8-8c4.408,0,8,3.584,8,8C336,340.348,332.408,343.932,328,343.932z"/>
	</g>
</g>
<g>
	<g>
		<path d="M280,95.932H144c-4.416,0-8,3.576-8,8v32c0,4.424,3.584,8,8,8h136c4.416,0,8-3.576,8-8v-32
			C288,99.508,284.416,95.932,280,95.932z M272,127.932H152v-16h120V127.932z"/>
	</g>
</g>
<g>
	<g>
		<rect x="72" y="175.932" width="16" height="16"/>
	</g>
</g>
<g>
	<g>
		<rect x="72" y="207.932" width="16" height="16"/>
	</g>
</g>
<g>
	<g>
		<rect x="72" y="239.932" width="16" height="16"/>
	</g>
</g>
<g>
	<g>
		<rect x="72" y="271.932" width="16" height="16"/>
	</g>
</g>
<g>
	<g>
		<rect x="104" y="175.932" width="16" height="16"/>
	</g>
</g>
<g>
	<g>
		<rect x="104" y="207.932" width="16" height="16"/>
	</g>
</g>
<g>
	<g>
		<rect x="104" y="239.932" width="16" height="16"/>
	</g>
</g>
<g>
	<g>
		<rect x="104" y="271.932" width="16" height="16"/>
	</g>
</g>
<g>
	<g>
		<rect x="136" y="175.932" width="16" height="16"/>
	</g>
</g>
<g>
	<g>
		<rect x="136" y="207.932" width="16" height="16"/>
	</g>
</g>
<g>
	<g>
		<rect x="136" y="239.932" width="16" height="16"/>
	</g>
</g>
<g>
	<g>
		<rect x="136" y="271.932" width="16" height="16"/>
	</g>
</g>
<g>
	<g>
		<path d="M272,175.932h-96c-4.416,0-8,3.576-8,8v96c0,4.424,3.584,8,8,8h96c4.416,0,8-3.576,8-8v-96
			C280,179.508,276.416,175.932,272,175.932z M264,271.932h-80v-80h80V271.932z"/>
	</g>
</g>
<g>
	<g>
		<path d="M360,183.932h-56c-4.416,0-8,3.576-8,8v80c0,4.424,3.584,8,8,8h56c4.416,0,8-3.576,8-8v-80
			C368,187.508,364.416,183.932,360,183.932z M352,263.932h-40v-64h40V263.932z"/>
	</g>
</g>
<g>
	<g>
		<path d="M339.984,21.7l-6.688,14.528c4.496,2.072,8.904,4.272,13.232,6.616l7.624-14.064
			C349.52,26.268,344.792,23.908,339.984,21.7z"/>
	</g>
</g>
<g>
	<g>
		<path d="M310.36,10.42l-4.704,15.296c4.736,1.456,9.4,3.056,14,4.808l5.696-14.952C320.432,13.692,315.432,11.98,310.36,10.42z"/>
	</g>
</g>
<g>
	<g>
		<path d="M169.752,10.388c-5.072,1.552-10.072,3.264-15,5.144l5.696,14.952c4.592-1.752,9.256-3.352,13.984-4.8L169.752,10.388z"/>
	</g>
</g>
<g>
	<g>
		<path d="M140.136,21.652c-4.816,2.2-9.544,4.56-14.176,7.072l7.608,14.08c4.328-2.336,8.736-4.536,13.232-6.6L140.136,21.652z"/>
	</g>
</g>
<g>
	<g>
		<path d="M200.616,3.148c-5.24,0.856-10.424,1.896-15.544,3.096l3.64,15.576c4.776-1.12,9.616-2.08,14.504-2.888L200.616,3.148z"/>
	</g>
</g>
<g>
	<g>
		<path d="M279.504,3.18l-2.6,15.784c4.888,0.816,9.72,1.776,14.496,2.896l3.664-15.576C289.952,5.092,284.72,4.044,279.504,3.18z"
			/>
	</g>
</g>
<g>
	<g>
		<path d="M232.144,0.068c-5.32,0.168-10.584,0.512-15.816,1.024l1.544,15.92c4.88-0.48,9.808-0.8,14.776-0.96L232.144,0.068z"/>
	</g>
</g>
<g>
	<g>
		<path d="M247.976,0.068l-0.504,15.984c4.968,0.168,9.88,0.488,14.76,0.968l1.576-15.92C258.576,0.58,253.296,0.228,247.976,0.068z
			"/>
	</g>
</g>
<g>
	<g>
		<path d="M310.304,452.66c-5.008,1.656-10.144,3.16-15.256,4.448l3.92,15.512c5.488-1.392,10.992-2.992,16.368-4.776
			L310.304,452.66z"/>
	</g>
</g>
<g>
	<g>
		<path d="M200.36,460.428l-2.824,15.752c5.528,0.992,11.2,1.8,16.864,2.4l1.696-15.904
			C210.808,462.1,205.512,461.348,200.36,460.428z"/>
	</g>
</g>
<g>
	<g>
		<path d="M169.568,452.612l-5.032,15.184c5.344,1.768,10.84,3.376,16.344,4.776l3.944-15.504
			C179.68,455.764,174.552,454.26,169.568,452.612z"/>
	</g>
</g>
<g>
	<g>
		<path d="M367.048,424.364c-4.312,2.984-8.816,5.872-13.392,8.568l8.144,13.784c4.904-2.896,9.736-5.992,14.36-9.192
			L367.048,424.364z"/>
	</g>
</g>
<g>
	<g>
		<path d="M112.84,424.3l-9.096,13.16c4.632,3.2,9.464,6.296,14.336,9.184l8.16-13.768C121.68,430.172,117.168,427.284,112.84,424.3
			z"/>
	</g>
</g>
<g>
	<g>
		<path d="M140.2,440.476l-7.152,14.312c5.12,2.552,10.336,4.928,15.52,7.064l6.088-14.8
			C149.832,445.076,144.976,442.86,140.2,440.476z"/>
	</g>
</g>
<g>
	<g>
		<path d="M247.88,463.796c-5.312,0.168-10.664,0.168-15.928-0.008l-0.536,15.984c2.832,0.104,5.688,0.152,8.584,0.16
			c2.824,0,5.632-0.048,8.432-0.152L247.88,463.796z"/>
	</g>
</g>
<g>
	<g>
		<path d="M339.688,440.54c-4.696,2.344-9.568,4.552-14.48,6.584l6.112,14.784c5.256-2.168,10.472-4.536,15.504-7.056
			L339.688,440.54z"/>
	</g>
</g>
<g>
	<g>
		<path d="M279.504,460.452c-5.192,0.928-10.488,1.68-15.744,2.232l1.672,15.904c5.64-0.584,11.32-1.4,16.88-2.392L279.504,460.452z
			"/>
	</g>
</g>
<g>
</g>
<g>
</g>
<g>
</g>
<g>
</g>
<g>
</g>
<g>
</g>
<g>
</g>
<g>
</g>
<g>
</g>
<g>
</g>
<g>
</g>
<g>
</g>
<g>
</g>
<g>
</g>
<g>
</g>
</svg>
