<svg width="398" height="516" xmlns="http://www.w3.org/2000/svg" xmlns:xlink="http://www.w3.org/1999/xlink" overflow="hidden"><defs><clipPath id="clip0"><rect x="1311" y="405" width="398" height="516"/></clipPath></defs><g clip-path="url(#clip0)" transform="translate(-1311 -405)"><path d="M1573.07 920 1380.93 920C1377.38 919.999 1374.33 917.451 1373.7 913.949L1339.12 721.654C1338.4 717.657 1341.05 713.835 1345.05 713.116 1345.48 713.039 1345.91 713 1346.35 713L1607.66 713C1611.71 713.001 1615 716.293 1615 720.354 1615 720.79 1614.96 721.225 1614.88 721.654L1580.3 913.949C1579.67 917.454 1576.63 920.003 1573.07 920ZM1387.08 905.295 1566.93 905.295 1598.9 727.705 1355.13 727.705Z" fill-rule="evenodd"/><path d="M1630.48 727 1323.52 727C1317.16 726.992 1312.01 721.911 1312 715.64L1312 675.353C1312.01 669.085 1317.16 664.008 1323.52 664L1630.48 664C1636.84 664.008 1641.99 669.085 1642 675.353L1642 715.647C1641.99 721.915 1636.84 726.992 1630.48 727ZM1326.7 712.501 1627.3 712.501 1627.3 678.492 1326.7 678.492Z" fill-rule="evenodd"/><path d="M1508.4 678 1507.84 678C1503.77 677.696 1500.72 674.182 1501.02 670.15 1502.19 654.664 1504.83 639.322 1508.9 624.325 1523.47 569.855 1555.91 521.726 1601.11 487.509 1604.35 485.05 1608.99 485.66 1611.48 488.871 1613.96 492.082 1613.34 496.679 1610.1 499.138 1567.5 531.382 1536.93 576.739 1523.19 628.074 1519.37 642.197 1516.89 656.645 1515.8 671.227 1515.51 675.058 1512.28 678.015 1508.4 678Z" fill-rule="evenodd"/><path d="M1599.45 591.997C1577.64 591.142 1556.38 584.886 1537.55 573.782 1536.12 573.009 1534.99 571.781 1534.33 570.291 1533.36 568.081 1510.9 516.066 1539.36 469.972 1564 430.147 1618.17 408.286 1700.39 405.008 1702.42 404.911 1704.4 405.687 1705.84 407.144 1707.28 408.585 1708.06 410.565 1708 412.609 1707.83 417.964 1703.05 544.224 1638.45 581.693 1626.59 588.561 1613.13 592.119 1599.45 591.997ZM1546.82 562.056C1580.34 579.601 1608.68 581.943 1631.1 568.943 1680.06 540.534 1690.75 447.979 1692.84 420.122 1620.37 424.203 1572.97 443.537 1551.83 477.64 1530.51 512.074 1543.17 552.208 1546.82 562.049Z" fill-rule="evenodd"/><path d="M1516.61 634C1513.62 634.001 1510.92 632.211 1509.78 629.466 1492.43 587.835 1458.89 554.934 1416.79 538.227 1412.97 536.795 1411.04 532.556 1412.48 528.759 1413.92 524.961 1418.18 523.043 1422 524.474 1422.1 524.51 1422.19 524.548 1422.29 524.588 1468.08 542.766 1504.55 578.551 1523.43 623.83 1525 627.577 1523.21 631.878 1519.44 633.437 1518.54 633.808 1517.58 634 1516.61 634Z" fill-rule="evenodd"/><path d="M1427.58 601C1422.88 600.995 1418.19 600.404 1413.64 599.24 1361.17 585.938 1333.52 500.568 1332.34 496.938 1331.12 493.074 1333.28 488.958 1337.18 487.744 1337.36 487.687 1337.54 487.638 1337.72 487.596 1395.37 474.022 1437.23 478.657 1462.2 501.367 1491.29 527.824 1485.65 568.288 1485.4 570.004 1485.15 571.614 1484.37 573.098 1483.18 574.22 1464.53 592.032 1445.88 601 1427.58 601ZM1349.16 500.062C1356.89 520.469 1380.94 575.811 1417.32 585.014 1434.15 589.267 1452.2 582.704 1471 565.472 1471.58 557.281 1471.85 529.951 1452.11 512.081 1432.05 493.939 1397.43 489.898 1349.16 500.062Z" fill-rule="evenodd"/><path d="M1316 555.334C1316 547.97 1321.97 542 1329.33 542L1430.67 542C1438.03 542 1444 547.97 1444 555.334L1444 608.666C1444 616.03 1438.03 622 1430.67 622L1329.33 622C1321.97 622 1316 616.03 1316 608.666Z" stroke="#000000" stroke-width="8" stroke-linejoin="round" stroke-miterlimit="10" fill="#EEF1F1" fill-rule="evenodd"/><rect x="1372" y="622" width="16" height="48" stroke="#000000" stroke-width="8" stroke-linejoin="round" stroke-miterlimit="10" fill="#EEF1F1"/></g></svg>